<svg width="68" height="43" viewBox="0 0 68 43" fill="none" xmlns="http://www.w3.org/2000/svg">
<g filter="url(#filter0_d_7_68)">
<path d="M57.6707 15.8305C34.9392 9.3882 36.9418 0.275138 21.6448 0.00148556C6.34779 -0.272167 -7.26663 37.3552 18.1788 34.7687C61.0522 36.0651 71.1257 32.3701 57.6707 15.8305Z" fill="url(#paint0_radial_7_68)"/>
<path d="M57.6707 15.8305C34.9392 9.3882 36.9418 0.275138 21.6448 0.00148556C6.34779 -0.272167 -7.26663 37.3552 18.1788 34.7687C61.0522 36.0651 71.1257 32.3701 57.6707 15.8305Z" fill="url(#paint1_radial_7_68)"/>
<path d="M57.6707 15.8305C34.9392 9.3882 36.9418 0.275138 21.6448 0.00148556C6.34779 -0.272167 -7.26663 37.3552 18.1788 34.7687C61.0522 36.0651 71.1257 32.3701 57.6707 15.8305Z" fill="url(#paint2_linear_7_68)"/>
<path d="M57.6707 15.8305C34.9392 9.3882 36.9418 0.275138 21.6448 0.00148556C6.34779 -0.272167 -7.26663 37.3552 18.1788 34.7687C61.0522 36.0651 71.1257 32.3701 57.6707 15.8305Z" fill="url(#paint3_radial_7_68)"/>
<path d="M57.6707 15.8305C34.9392 9.3882 36.9418 0.275138 21.6448 0.00148556C6.34779 -0.272167 -7.26663 37.3552 18.1788 34.7687C61.0522 36.0651 71.1257 32.3701 57.6707 15.8305Z" fill="url(#paint4_radial_7_68)"/>
<path d="M57.6707 15.8305C34.9392 9.3882 36.9418 0.275138 21.6448 0.00148556C6.34779 -0.272167 -7.26663 37.3552 18.1788 34.7687C61.0522 36.0651 71.1257 32.3701 57.6707 15.8305Z" fill="url(#paint5_linear_7_68)"/>
<path d="M57.6707 15.8305C34.9392 9.3882 44.3821 12.0261 49.5311 22.9186C54.68 33.8112 31.7785 35.1472 40.6753 34.7849C56.8794 34.125 71.1257 32.3701 57.6707 15.8305Z" fill="url(#paint6_radial_7_68)"/>
<path d="M57.6707 15.8305C34.9392 9.3882 44.3821 12.0261 49.5311 22.9186C54.68 33.8112 31.7785 35.1472 40.6753 34.7849C56.8794 34.125 71.1257 32.3701 57.6707 15.8305Z" fill="url(#paint7_radial_7_68)"/>
<path d="M57.6707 15.8305C34.9392 9.3882 44.3821 12.0261 49.5311 22.9186C54.68 33.8112 31.7785 35.1472 40.6753 34.7849C56.8794 34.125 71.1257 32.3701 57.6707 15.8305Z" fill="url(#paint8_linear_7_68)"/>
<path d="M57.6707 15.8305C34.9392 9.3882 44.3821 12.0261 49.5311 22.9186C54.68 33.8112 31.7785 35.1472 40.6753 34.7849C56.8794 34.125 71.1257 32.3701 57.6707 15.8305Z" fill="url(#paint9_radial_7_68)"/>
<path d="M57.6707 15.8305C34.9392 9.3882 44.3821 12.0261 49.5311 22.9186C54.68 33.8112 31.7785 35.1472 40.6753 34.7849C56.8794 34.125 71.1257 32.3701 57.6707 15.8305Z" fill="url(#paint10_radial_7_68)"/>
<path d="M57.6707 15.8305C34.9392 9.3882 44.3821 12.0261 49.5311 22.9186C54.68 33.8112 31.7785 35.1472 40.6753 34.7849C56.8794 34.125 71.1257 32.3701 57.6707 15.8305Z" fill="url(#paint11_linear_7_68)"/>
<path d="M57.6707 15.8305C34.9392 9.3882 36.9418 0.275138 21.6448 0.00148556C6.34779 -0.272167 -7.26663 37.3552 18.1788 34.7687C61.0522 36.0651 71.1257 32.3701 57.6707 15.8305ZM57.6707 15.8305C34.9392 9.3882 44.3821 12.0261 49.5311 22.9186C54.68 33.8112 31.7785 35.1472 40.6753 34.7849C56.8794 34.125 71.1257 32.3701 57.6707 15.8305Z" stroke="black"/>
</g>
<defs>
<filter id="filter0_d_7_68" x="0" y="0" width="67.2412" height="43.0063" filterUnits="userSpaceOnUse" color-interpolation-filters="sRGB">
<feFlood flood-opacity="0" result="BackgroundImageFix"/>
<feColorMatrix in="SourceAlpha" type="matrix" values="0 0 0 0 0 0 0 0 0 0 0 0 0 0 0 0 0 0 127 0" result="hardAlpha"/>
<feOffset dy="4"/>
<feGaussianBlur stdDeviation="2"/>
<feComposite in2="hardAlpha" operator="out"/>
<feColorMatrix type="matrix" values="0 0 0 0 0 0 0 0 0 0 0 0 0 0 0 0 0 0 0.25 0"/>
<feBlend mode="normal" in2="BackgroundImageFix" result="effect1_dropShadow_7_68"/>
<feBlend mode="normal" in="SourceGraphic" in2="effect1_dropShadow_7_68" result="shape"/>
</filter>
<radialGradient id="paint0_radial_7_68" cx="0" cy="0" r="1" gradientUnits="userSpaceOnUse" gradientTransform="translate(54.5645 7.29297) rotate(152.805) scale(55.1671 110.55)">
<stop offset="0.105" stop-color="#C4C4C4"/>
<stop offset="0.845" stop-color="#5E5E5E"/>
</radialGradient>
<radialGradient id="paint1_radial_7_68" cx="0" cy="0" r="1" gradientUnits="userSpaceOnUse" gradientTransform="translate(42.5965 12.919) rotate(-79.8245) scale(16.936 38.4598)">
<stop stop-color="white" stop-opacity="0.64"/>
<stop offset="0.565" stop-color="white" stop-opacity="0"/>
</radialGradient>
<linearGradient id="paint2_linear_7_68" x1="49.9393" y1="21.728" x2="50.603" y2="32.736" gradientUnits="userSpaceOnUse">
<stop offset="0.815" stop-opacity="0"/>
<stop offset="1" stop-opacity="0.12"/>
</linearGradient>
<radialGradient id="paint3_radial_7_68" cx="0" cy="0" r="1" gradientUnits="userSpaceOnUse" gradientTransform="translate(54.5645 7.29297) rotate(152.805) scale(55.1671 110.55)">
<stop offset="0.105" stop-color="#C4C4C4"/>
<stop offset="0.845" stop-color="#5E5E5E"/>
</radialGradient>
<radialGradient id="paint4_radial_7_68" cx="0" cy="0" r="1" gradientUnits="userSpaceOnUse" gradientTransform="translate(42.5965 12.919) rotate(-79.8245) scale(16.936 38.4598)">
<stop stop-color="white" stop-opacity="0.64"/>
<stop offset="0.565" stop-color="white" stop-opacity="0"/>
</radialGradient>
<linearGradient id="paint5_linear_7_68" x1="49.9393" y1="21.728" x2="50.603" y2="32.736" gradientUnits="userSpaceOnUse">
<stop offset="0.815" stop-opacity="0"/>
<stop offset="1" stop-opacity="0.12"/>
</linearGradient>
<radialGradient id="paint6_radial_7_68" cx="0" cy="0" r="1" gradientUnits="userSpaceOnUse" gradientTransform="translate(54.5645 7.29297) rotate(152.805) scale(55.1671 110.55)">
<stop offset="0.105" stop-color="#C4C4C4"/>
<stop offset="0.845" stop-color="#5E5E5E"/>
</radialGradient>
<radialGradient id="paint7_radial_7_68" cx="0" cy="0" r="1" gradientUnits="userSpaceOnUse" gradientTransform="translate(42.5965 12.919) rotate(-79.8245) scale(16.936 38.4598)">
<stop stop-color="white" stop-opacity="0.64"/>
<stop offset="0.565" stop-color="white" stop-opacity="0"/>
</radialGradient>
<linearGradient id="paint8_linear_7_68" x1="49.9393" y1="21.728" x2="50.603" y2="32.736" gradientUnits="userSpaceOnUse">
<stop offset="0.815" stop-opacity="0"/>
<stop offset="1" stop-opacity="0.12"/>
</linearGradient>
<radialGradient id="paint9_radial_7_68" cx="0" cy="0" r="1" gradientUnits="userSpaceOnUse" gradientTransform="translate(54.5645 7.29297) rotate(152.805) scale(55.1671 110.55)">
<stop offset="0.105" stop-color="#C4C4C4"/>
<stop offset="0.845" stop-color="#5E5E5E"/>
</radialGradient>
<radialGradient id="paint10_radial_7_68" cx="0" cy="0" r="1" gradientUnits="userSpaceOnUse" gradientTransform="translate(42.5965 12.919) rotate(-79.8245) scale(16.936 38.4598)">
<stop stop-color="white" stop-opacity="0.64"/>
<stop offset="0.565" stop-color="white" stop-opacity="0"/>
</radialGradient>
<linearGradient id="paint11_linear_7_68" x1="49.9393" y1="21.728" x2="50.603" y2="32.736" gradientUnits="userSpaceOnUse">
<stop offset="0.815" stop-opacity="0"/>
<stop offset="1" stop-opacity="0.12"/>
</linearGradient>
</defs>
</svg>
